<svg id="Layer_5" enable-background="new 0 0 64 64" height="512" viewBox="0 0 64 64" width="512" xmlns="http://www.w3.org/2000/svg"><g><path d="m60.989 57.181-.052-3.799c-.604-5.438-4.068-10.037-9.091-12.123l-.251-1.006c1.164-.713 2.023-1.874 2.305-3.253h.1c2.206 0 4-1.794 4-4 0-.534-.109-1.041-.3-1.507.181-.545.3-1.106.3-1.686v-1.644c0-2.202-1.331-4.163-3.348-4.986l-.518-.777c-1.001-1.503-2.676-2.4-4.482-2.4h-3.318c-3.071 0-5.752 1.674-7.197 4.153-1.011-.769-2.112-1.404-3.29-1.893l-.252-1.006c1.164-.713 2.024-1.874 2.305-3.253h.1c2.206 0 4-1.794 4-4 0-.682-.188-1.316-.49-1.879.319-.896.49-1.83.49-2.789 0-4.595-3.738-8.333-8.333-8.333h-3.333c-4.596 0-8.334 3.738-8.334 8.333 0 .958.171 1.892.491 2.788-.303.563-.491 1.196-.491 1.879 0 2.206 1.794 4 4 4h.101c.281 1.38 1.141 2.541 2.305 3.253l-.251 1.005c-1.377.572-2.64 1.344-3.781 2.292-1.787-2.735-4.87-4.55-8.374-4.55-5.514 0-10 4.486-10 10v10c0 1.573.544 3.094 1.505 4.32-2.448 2.373-4.052 5.567-4.448 9.159l-.047 3.702c-1.166.411-2.01 1.513-2.01 2.819v3h62v-3c0-1.306-.844-2.408-2.011-2.819zm-2.046-3.677.044 3.496h-3.12l-.877-6.142-1.979.283.836 5.859h-6.847v-.427c0-1.384-.937-2.588-2.301-2.936-.306-.078-.563-.301-.694-.616-.126-.299-.104-.642.071-.937.389-.653.498-1.403.363-2.11l3.561-3.56 3.707 3.707.894-6.255c3.515 2.031 5.888 5.587 6.342 9.638zm-18.002 3.496c-.5-4.493-4.317-8-8.941-8s-8.441 3.507-8.941 8h-4.059v-.427c0-.468.317-.876.793-.997.913-.232 1.675-.891 2.047-1.781.37-.881.3-1.895-.197-2.732-.24-.402-.175-.915.156-1.246l2.018-2.018c.331-.331.843-.396 1.267-.144.816.485 1.831.555 2.729.178.873-.364 1.532-1.127 1.77-2.062.114-.454.521-.771.99-.771h2.854c.468 0 .876.317.997.793.232.913.891 1.675 1.781 2.047.881.37 1.895.3 2.732-.197.4-.239.914-.176 1.246.156l2.018 2.018c.331.332.396.844.144 1.267-.485.817-.555 1.831-.178 2.729.364.873 1.127 1.532 2.062 1.77.454.114.771.521.771.99v.427zm-2.021 0h-13.84c.488-3.387 3.401-6 6.92-6s6.432 2.613 6.92 6zm-23.037 0-1-8h2.235l-1 8zm7.294-11.172c-.28.142-.543.325-.774.557l-2.018 2.018c-.979.979-1.168 2.493-.449 3.702.164.275.186.618.052.937-.124.295-.38.519-.709.602-.276.07-.529.185-.766.322l1.314-10.511c1.236.61 2.369 1.406 3.35 2.373zm-6.177-6.828h-2c-1.654 0-3-1.346-3-3v-4.085c1.176-.202 2.26-.761 3.121-1.622l.879-.879.879.879c.861.861 1.945 1.42 3.121 1.622v4.085c0 1.654-1.346 3-3 3zm-2 2h2c.24 0 .47-.038.701-.071l.283 1.133-.617 4.938h-2.735l-.617-4.938.283-1.133c.232.033.462.071.702.071zm14.728-13.687-.367-2.165 1.205 1.606zm2.272.889.608.406-.441 2.392h-.335l-.441-2.393zm2.639-3.054-.367 2.165-.838-.558zm-2.761 7.852h.245l1.314 10.001c-.003 0-.006-.001-.009-.001h-2.854c-.003 0-.006.001-.008.001zm14.708 12-.879.879-.293-2.051zm-3.184-1.116.752 5.26c-.14-.267-.315-.52-.538-.742l-2.018-2.018c-.23-.23-.491-.413-.77-.554.77-.758 1.64-1.403 2.574-1.946zm7.184-.056-.293 2.051-.879-.879zm-.693-2.135-1.893 1.893-1.893-1.893.191-.764c.232.033.462.071.702.071h2c.24 0 .47-.038.701-.071zm2.107-5.693c0 1.654-1.346 3-3 3h-2c-1.654 0-3-1.346-3-3v-5.085c1.176-.202 2.26-.761 3.121-1.622l.879-.879.879.879c.861.861 1.945 1.42 3.121 1.622zm2-1v-4c1.103 0 2 .897 2 2s-.897 2-2 2zm-7.667-13h3.318c1.135 0 2.189.564 2.818 1.508l.888 1.332.325.108c1.387.463 2.318 1.754 2.318 3.214v1.394c-.591-.344-1.268-.556-2-.556h-1c-1.022 0-1.984-.398-2.707-1.121l-2.293-2.293-2.293 2.293c-.723.723-1.685 1.121-2.707 1.121h-1c-.686 0-1.323.19-1.888.496-.072-.382-.112-.769-.112-1.163 0-3.492 2.841-6.333 6.333-6.333zm-6.333 11c0-1.103.897-2 2-2v4c-1.103 0-2-.897-2-2zm-1.509-1.879c-.303.563-.491 1.196-.491 1.879 0 2.206 1.794 4 4 4h.101c.281 1.38 1.141 2.541 2.305 3.253l-.252 1.006c-2.346.977-4.399 2.539-5.976 4.538-.095.044-.191.083-.283.138-.275.164-.618.186-.937.052-.295-.124-.519-.38-.602-.709-.137-.537-.416-1.004-.785-1.377l-1.56-11.876.407-2.21 1.309.873.977-5.759c.567.337 1.103.723 1.615 1.145-.203.72-.32 1.476-.32 2.26.001.957.172 1.891.492 2.787zm-.491-15.121v-4c1.103 0 2 .897 2 2s-.897 2-2 2zm-14-2c0-1.103.897-2 2-2h.029c-.01.114-.029.226-.029.342v3.658c-1.103 0-2-.897-2-2zm5.929-3.701c.671 1.011 1.698 1.701 3.071 1.701v-2c-1.582 0-2-1.962-2-3h-2c0 .482.053.965.156 1.431l-.126.031c-.941.235-1.725.796-2.263 1.538h-.767c-.686 0-1.323.19-1.888.496-.072-.382-.112-.769-.112-1.163 0-3.492 2.841-6.333 6.333-6.333h3.333c3.493 0 6.334 2.841 6.334 6.333 0 .393-.04.781-.112 1.162-.565-.305-1.201-.495-1.888-.495h-1c-1.582 0-2-1.962-2-3h-2c0 2.147 1.028 4.312 3 4.863v5.137c0 1.654-1.346 3-3 3h-2c-1.654 0-3-1.346-3-3v-4.658c0-.919.623-1.717 1.515-1.94zm1.071 11.701h2c.24 0 .47-.038.701-.071l.213.852-1.914 2.552-1.914-2.552.213-.852c.231.033.461.071.701.071zm-3.703 2.936.975 5.751 1.309-.873.407 2.21-1.56 11.88c-.371.376-.652.849-.791 1.396-.078.306-.301.563-.616.694-.301.125-.642.104-.937-.071-.086-.051-.177-.088-.267-.13-.411-.521-.854-1.011-1.327-1.47.965-1.225 1.51-2.749 1.51-4.323v-10c0-1.274-.249-2.489-.685-3.61.617-.549 1.277-1.036 1.982-1.454zm-19.297 15.064v-10c0-4.411 3.589-8 8-8s8 3.589 8 8v10c0 1.118-.373 2.163-1.039 3.029-.961-.708-2.003-1.307-3.115-1.769l-.252-1.006c1.437-.88 2.406-2.45 2.406-4.254v-6h-1c-1.022 0-1.984-.398-2.707-1.121l-2.293-2.293-2.293 2.293c-.723.723-1.685 1.121-2.707 1.121h-1v6c0 1.804.969 3.374 2.406 4.253l-.252 1.006c-1.124.467-2.164 1.066-3.118 1.767-.664-.866-1.036-1.909-1.036-3.026zm4.174 3.453 1.693 13.547h-3.714l.837-5.858-1.98-.284-.877 6.142h-3.121l.039-3.398c.492-4.431 3.182-8.213 7.123-10.149zm48.826 17.547h-58v-1c0-.551.449-1 1-1h56c.551 0 1 .449 1 1z"/><path d="m17 34.586c-.526.526-1.474.526-2 0l-.293-.293-1.414 1.414.293.293c.645.645 1.502 1 2.414 1s1.77-.355 2.414-1l.293-.293-1.414-1.414z"/><path d="m32 18c.912 0 1.77-.355 2.414-1l.293-.293-1.414-1.414-.293.293c-.526.526-1.474.526-2 0l-.293-.293-1.414 1.414.293.293c.644.645 1.502 1 2.414 1z"/><path d="m47 34.586-.293-.293-1.414 1.414.293.293c.645.645 1.502 1 2.414 1s1.77-.355 2.414-1l.293-.293-1.414-1.414-.293.293c-.526.526-1.474.526-2 0z"/></g></svg>