<?xml version="1.0" standalone="no"?>
<!DOCTYPE svg PUBLIC "-//W3C//DTD SVG 20010904//EN"
 "http://www.w3.org/TR/2001/REC-SVG-20010904/DTD/svg10.dtd">
<svg version="1.0" xmlns="http://www.w3.org/2000/svg"
 width="1577.000000pt" height="1280.000000pt" viewBox="0 0 1577.000000 1280.000000"
 preserveAspectRatio="xMidYMid meet">
<metadata>
Created by potrace 1.16, written by Peter Selinger 2001-2019
</metadata>
<g transform="translate(0.000000,1280.000000) scale(0.100000,-0.100000)"
fill="#F15E3F" stroke="none">
<path d="M11335 12783 c-122 -19 -379 -80 -476 -112 -583 -196 -1018 -681
-1147 -1281 -45 -207 -53 -492 -19 -668 l12 -64 109 91 c448 371 925 612 1411
711 171 35 338 50 565 50 546 0 989 -94 1454 -309 49 -23 93 -41 97 -41 26 0
-1 121 -35 160 -8 8 -25 60 -39 115 -167 670 -711 1188 -1392 1326 -87 17
-151 22 -310 24 -110 2 -213 1 -230 -2z"/>
<path d="M4035 12710 c-424 -49 -807 -237 -1101 -542 -210 -217 -361 -480
-425 -743 -12 -49 -30 -99 -40 -110 -10 -11 -22 -33 -28 -48 -13 -32 -15 -107
-3 -107 4 0 61 24 128 54 294 131 630 225 984 273 108 14 198 18 450 17 296 0
324 -2 460 -27 566 -103 1027 -343 1428 -745 68 -68 125 -122 127 -120 11 11
27 145 32 268 24 603 -244 1155 -732 1506 -49 35 -153 95 -230 133 -258 128
-508 189 -799 196 -94 2 -207 0 -251 -5z"/>
<path d="M3745 10909 c-434 -31 -814 -152 -1090 -347 -103 -74 -294 -264 -368
-369 -177 -250 -237 -393 -530 -1274 -340 -1021 -806 -2348 -1396 -3974 -28
-76 -51 -144 -51 -149 0 -5 11 1 25 14 20 19 16 4 -29 -96 -132 -294 -216
-578 -269 -914 -29 -187 -32 -719 -4 -905 84 -556 276 -1047 577 -1471 168
-236 431 -518 645 -688 338 -270 758 -488 1166 -606 654 -187 1366 -170 2004
50 1164 402 2016 1413 2214 2627 46 282 53 675 16 953 -120 909 -598 1719
-1337 2266 -361 267 -791 464 -1240 568 -121 28 -95 32 64 10 947 -131 1640
-496 2129 -1124 105 -134 209 -292 313 -474 l82 -145 12 -118 c16 -157 51
-285 116 -419 159 -324 442 -556 794 -650 134 -36 366 -45 509 -19 548 98 958
545 1002 1095 l9 105 81 143 c99 174 171 287 264 412 415 562 953 911 1696
1100 164 42 458 95 581 104 l75 6 -105 -25 c-987 -234 -1794 -866 -2244 -1755
-170 -336 -274 -666 -333 -1065 -14 -96 -18 -183 -18 -440 1 -281 3 -337 23
-465 83 -529 249 -961 533 -1385 734 -1094 2022 -1653 3319 -1439 1341 221
2417 1242 2714 2574 66 300 93 697 67 990 -38 410 -153 835 -317 1162 l-36 73
31 -29 c17 -17 31 -27 31 -24 0 4 -66 188 -146 410 -545 1507 -987 2766 -1298
3698 -217 649 -265 778 -358 964 -264 527 -644 838 -1195 976 -394 98 -852
103 -1198 13 -485 -126 -894 -421 -1440 -1038 -422 -477 -525 -565 -663 -565
-63 0 -99 17 -161 75 -123 114 -326 230 -506 290 -191 63 -503 102 -710 90
-434 -26 -761 -144 -1010 -365 -39 -35 -84 -69 -102 -76 -49 -21 -121 -17
-178 10 -111 52 -197 132 -469 436 -350 391 -514 557 -711 714 -289 230 -618
392 -930 455 -192 39 -395 48 -650 30z m-50 -5483 c432 -80 802 -265 1104
-552 344 -326 563 -747 638 -1225 24 -157 24 -471 -1 -624 -112 -702 -530
-1273 -1158 -1585 -711 -352 -1574 -271 -2211 209 -887 668 -1103 1931 -488
2857 339 511 863 840 1481 929 130 19 511 13 635 -9z m9111 -5 c430 -81 795
-267 1098 -561 475 -460 708 -1109 631 -1762 -150 -1281 -1378 -2126 -2629
-1809 -645 164 -1177 628 -1430 1247 -192 472 -207 1008 -41 1494 235 686 821
1213 1525 1370 182 41 273 49 510 46 177 -3 249 -8 336 -25z"/>
</g>
</svg>
